HIERARCHY
ROOT SpineBase
{
  OFFSET 0.000000 0.000000 0.000000
  CHANNELS 6 Xposition Yposition Zposition Zrotation Xrotation Yrotation
  JOINT SpineMid
  {
    OFFSET -0.000000 29.893021 0.000000
    CHANNELS 3 Zrotation Xrotation Yrotation
    JOINT SpineShoulder
    {
      OFFSET 0.068742 22.196796 -1.009251
      CHANNELS 3 Zrotation Xrotation Yrotation
      JOINT Neck
      {
        OFFSET 0.087822 7.340272 -0.675886
        CHANNELS 3 Zrotation Xrotation Yrotation
        JOINT Head
        {
          OFFSET 4.568296 13.471789 1.758681
          CHANNELS 3 Zrotation Xrotation Yrotation
          End Site
          {
            OFFSET 0 0 0
          }
        }
      }
      JOINT ShoulderLeft
      {
        OFFSET -8.411152 -2.803507 -13.174241
        CHANNELS 3 Zrotation Xrotation Yrotation
        JOINT ElbowLeft
        {
          OFFSET -3.974233 -24.045272 -5.483988
          CHANNELS 3 Zrotation Xrotation Yrotation
          JOINT WristLeft
          {
            OFFSET 5.034690 -24.218357 -2.630409
            CHANNELS 3 Zrotation Xrotation Yrotation
            JOINT HandLeft
            {
              OFFSET 0.810178 -3.745203 0.661443
              CHANNELS 3 Zrotation Xrotation Yrotation
              JOINT HandTipLeft
              {
                OFFSET 1.210107 -5.488805 0.117134
                CHANNELS 3 Zrotation Xrotation Yrotation
                End Site
                {
                  OFFSET 0 0 0
                }
              }
              JOINT ThumbLeft
              {
                OFFSET -2.622368 -1.077471 -2.434493
                CHANNELS 3 Zrotation Xrotation Yrotation
                End Site
                {
                  OFFSET 0 0 0
                }
              }
            }
          }
        }
      }
      JOINT ShoulderRight
      {
        OFFSET 10.541417 -5.423016 11.198003
        CHANNELS 3 Zrotation Xrotation Yrotation
        JOINT ElbowRight
        {
          OFFSET 1.577612 -27.598485 4.173730
          CHANNELS 3 Zrotation Xrotation Yrotation
          JOINT WristRight
          {
            OFFSET 1.676412 -23.125129 -2.693245
            CHANNELS 3 Zrotation Xrotation Yrotation
            JOINT HandRight
            {
              OFFSET -0.133603 -3.717041 0.395647
              CHANNELS 3 Zrotation Xrotation Yrotation
              JOINT HandTipRight
              {
                OFFSET -1.291371 -4.773564 -0.089930
                CHANNELS 3 Zrotation Xrotation Yrotation
                End Site
                {
                  OFFSET 0 0 0
                }
              }
              JOINT ThumbRight
              {
                OFFSET -1.986946 2.021363 -2.649356
                CHANNELS 3 Zrotation Xrotation Yrotation
                End Site
                {
                  OFFSET 0 0 0
                }
              }
            }
          }
        }
      }
    }
  }
  JOINT HipLeft
  {
    OFFSET -3.832946 1.884805 -7.879664
    CHANNELS 3 Zrotation Xrotation Yrotation
    JOINT KneeLeft
    {
      OFFSET -7.400532 -26.151023 -1.610282
      CHANNELS 3 Zrotation Xrotation Yrotation
      JOINT AnkleLeft
      {
        OFFSET -7.796407 -33.802984 4.904824
        CHANNELS 3 Zrotation Xrotation Yrotation
        JOINT FootLeft
        {
          OFFSET 3.932002 -7.908349 -1.361114
          CHANNELS 3 Zrotation Xrotation Yrotation
          End Site
          {
            OFFSET 0 0 0
          }
        }
      }
    }
  }
  JOINT HipRight
  {
    OFFSET 4.737324 0.042493 0.992060
    CHANNELS 3 Zrotation Xrotation Yrotation
    JOINT KneeRight
    {
      OFFSET -3.127025 -27.304680 7.472841
      CHANNELS 3 Zrotation Xrotation Yrotation
      JOINT AnkleRight
      {
        OFFSET -11.605385 -29.939756 0.641092
        CHANNELS 3 Zrotation Xrotation Yrotation
        JOINT FootRight
        {
          OFFSET 1.817722 -8.566440 -4.076290
          CHANNELS 3 Zrotation Xrotation Yrotation
          End Site
          {
            OFFSET 0 0 0
          }
        }
      }
    }
  }
}
MOTION
Frames: 10
Frame Time: 0.033333
-43.535068 66.665233 329.339356 0.000000 0.000000 -45.990156 -0.000000 0.000000 45.990156 -0.000000 0.000000 0.000000 -0.000000 0.000000 0.000000 0.000000 0.000000 0.000000 -0.000000 0.000000 0.000000 -0.000000 0.000000 0.000000 -0.000000 0.000000 0.000000 -0.000000 0.000000 0.000000 0.000000 0.000000 0.000000 0.000000 0.000000 0.000000 -0.000000 0.000000 0.000000 -0.000000 0.000000 0.000000 -0.000000 0.000000 0.000000 -0.000000 0.000000 0.000000 0.000000 0.000000 0.000000 0.000000 0.000000 0.000000 -0.000000 0.000000 45.990156 -0.000000 0.000000 0.000000 -0.000000 0.000000 0.000000 0.000000 0.000000 0.000000 -0.000000 0.000000 45.990156 -0.000000 0.000000 0.000000 -0.000000 0.000000 0.000000 0.000000 0.000000 0.000000
-43.556780 66.730431 329.282342 -0.058477 0.043993 -46.961717 0.072064 0.012716 46.961731 -0.000000 0.000000 0.000000 -0.000000 0.000000 0.000000 0.000000 0.000000 0.000000 -0.000000 0.000000 0.000000 1.825206 -1.376950 -0.461657 -2.223192 -1.300310 -0.139793 0.690148 1.552396 0.386183 0.000000 0.000000 0.000000 0.000000 0.000000 0.000000 -0.000000 0.000000 0.000000 -0.676157 4.839277 0.456291 -3.758893 -8.457946 -1.238437 5.370778 5.442224 -0.391346 0.000000 0.000000 0.000000 0.000000 0.000000 0.000000 0.072064 0.012716 46.961731 -0.000000 0.000000 0.000000 -0.000000 0.000000 0.000000 0.000000 0.000000 0.000000 0.072064 0.012716 46.961731 -0.000000 0.000000 0.000000 -0.000000 0.000000 0.000000 0.000000 0.000000 0.000000
-43.583206 66.782045 329.204424 -0.123811 0.122298 -47.672888 0.173786 0.009185 47.673007 -0.000000 0.000000 0.000000 -0.000000 0.000000 0.000000 0.000000 0.000000 0.000000 0.829406 -0.587526 -0.088013 2.165138 -1.654363 -0.664977 -3.907590 -2.256960 -0.277456 0.985590 2.509718 0.654181 0.000000 0.000000 0.000000 0.000000 0.000000 0.000000 -0.000000 0.000000 0.000000 -1.165557 7.845466 0.779646 -7.990511 -14.866306 -3.080154 10.911608 10.587366 -1.178349 0.000000 0.000000 0.000000 0.000000 0.000000 0.000000 0.173786 0.009185 47.673007 -0.000000 0.000000 0.000000 0.720733 0.523580 0.132464 0.000000 0.000000 0.000000 1.155829 0.416413 47.984449 -0.959864 0.457063 -0.311262 0.639592 -0.464984 -0.400718 0.000000 0.000000 0.000000
-43.614346 66.820075 329.105603 -0.195945 0.234981 -48.126298 0.305762 -0.010943 48.126729 -0.000000 0.000000 0.000000 -0.000000 0.000000 0.000000 0.000000 0.000000 0.000000 0.955821 -0.735464 -0.090561 2.593762 -1.884511 -0.789060 -5.092339 -2.804909 -0.426630 0.833945 2.921811 0.854501 0.000000 0.000000 0.000000 0.000000 0.000000 0.000000 -0.000000 0.000000 0.000000 -1.452795 9.122331 0.939928 -11.787844 -18.706958 -4.843889 15.943281 14.825200 -2.288222 0.000000 0.000000 0.000000 0.000000 0.000000 0.000000 1.184523 -0.665870 48.434976 -0.093075 1.091995 -0.302170 0.994656 0.745897 0.192147 0.000000 0.000000 0.000000 1.510869 0.403639 48.498185 -1.109059 0.627834 -0.369509 0.951274 -0.697755 -0.595606 0.000000 0.000000 0.000000
-43.650200 66.844520 328.985878 -0.274803 0.382013 -48.325816 0.468054 -0.048733 48.326931 -0.000000 0.000000 0.000000 -0.000000 0.000000 0.000000 0.000000 0.000000 0.000000 0.891030 -0.786388 -0.067320 2.619964 -1.732431 -0.793673 -5.790524 -2.921205 -0.594266 0.236974 2.835783 1.000546 0.000000 0.000000 0.000000 0.000000 0.000000 0.000000 -0.000000 0.000000 0.000000 -1.531215 8.718595 0.921031 -13.882505 -19.475078 -5.574258 19.549869 17.470434 -3.399993 0.000000 0.000000 0.000000 0.000000 0.000000 0.000000 1.721046 -0.860614 48.741106 -0.216161 1.477261 -0.401444 1.211793 0.942190 0.248272 0.000000 0.000000 0.000000 1.710860 0.225159 48.692354 -1.026158 0.752753 -0.360595 1.257519 -0.930609 -0.786861 0.000000 0.000000 0.000000
-43.690768 66.855382 328.845249 -0.360290 0.563260 -48.276243 0.660183 -0.105954 48.278624 -0.000000 0.000000 0.000000 -0.000000 0.000000 0.000000 0.000000 0.000000 0.000000 0.635506 -0.740728 -0.018447 2.237732 -1.191712 -0.673745 -5.985086 -2.619767 -0.783222 -0.741264 2.277594 1.062249 0.000000 0.000000 0.000000 0.000000 0.000000 0.000000 -0.447789 0.860534 -0.015186 -0.953670 5.734526 0.719291 -13.371884 -16.763777 -4.672101 20.958249 18.083137 -4.130656 0.000000 0.000000 0.000000 0.000000 0.000000 0.000000 2.324431 -1.051474 48.801352 -0.385174 1.874854 -0.499614 1.372663 1.112654 0.301335 0.000000 0.000000 0.000000 1.754916 -0.119293 48.571678 -0.714428 0.829603 -0.285730 1.558311 -1.163475 -0.974496 0.000000 0.000000 0.000000
-43.737269 66.878586 328.620887 -0.449591 0.873874 -48.380941 0.951900 -0.244265 48.386399 -0.000000 0.000000 0.000000 -0.000000 0.000000 0.000000 0.000000 0.000000 0.000000 1.692363 -2.004780 -0.025166 1.235578 -0.377455 -0.768375 -4.670246 -3.440702 -0.699473 -2.912441 3.464298 1.250454 0.000000 0.000000 0.000000 0.000000 0.000000 0.000000 -0.000000 0.000000 0.000000 -1.336491 5.553791 0.620429 -9.003606 13.167799 -1.619936 17.495106 -6.958203 1.897540 0.000000 0.000000 0.000000 0.000000 0.000000 0.000000 3.229003 -1.494332 49.104130 -0.546969 2.539190 -0.671056 1.407658 1.198343 0.336166 0.000000 0.000000 0.000000 1.615775 -0.724441 48.507554 -0.080194 0.815374 -0.114973 2.012792 -1.529855 -1.258893 0.000000 0.000000 0.000000
-43.777444 66.853593 328.414217 -0.529001 1.181715 -47.930557 0.458681 -0.005847 47.924699 -0.153829 0.058120 -0.033775 0.154489 -1.790171 0.376556 0.000000 0.000000 0.000000 1.757865 -2.939269 0.119673 -0.097812 1.478785 -0.295559 -4.555958 -4.387245 -1.495930 -2.387102 3.540363 1.510420 0.000000 0.000000 0.000000 0.000000 0.000000 0.000000 -0.504444 3.754036 0.204449 0.435857 -7.489555 -0.300918 -6.299100 7.304631 -0.132916 16.046308 9.038692 -3.115133 0.000000 0.000000 0.000000 0.000000 0.000000 0.000000 4.058972 -1.813033 48.808283 -0.800057 3.057793 -0.792038 1.411853 1.307699 0.387950 0.000000 0.000000 0.000000 1.276181 -1.528136 47.810526 0.806773 0.791241 0.124953 2.259497 -1.612649 -1.389138 0.000000 0.000000 0.000000
-43.834791 66.805635 328.261324 -0.619886 1.412354 -46.863749 0.553661 -0.017097 46.859106 -0.230719 0.137379 -0.045022 0.202042 -2.215162 0.458742 0.000000 0.000000 0.000000 -0.402955 -1.622222 0.324919 -1.711741 3.650279 0.748907 -3.680436 0.011846 -1.493572 -1.222557 -6.011018 -0.796795 0.000000 0.000000 0.000000 0.000000 0.000000 0.000000 -0.594358 4.589294 0.262213 1.444769 -20.462417 -1.162607 -2.954148 8.984324 1.645365 16.245832 16.949427 -6.330790 0.000000 0.000000 0.000000 0.000000 0.000000 0.000000 4.666389 -1.863531 47.799106 -1.160222 3.284812 -0.821300 1.722909 1.435958 0.392065 0.000000 0.000000 0.000000 0.891283 -2.186755 46.510127 2.533481 0.703641 0.369796 1.689627 -2.023724 -1.684591 0.000000 0.000000 0.000000
-43.898380 66.729096 328.138812 -0.752348 1.577962 -45.432483 0.603107 -0.033958 45.425988 -0.310232 0.218309 -0.059460 0.535343 -2.557702 0.510439 0.000000 0.000000 0.000000 -4.764585 1.884310 0.804469 -3.659323 5.417927 2.447891 -1.740437 4.243713 -1.711551 -5.076326 -13.582667 -3.917891 0.000000 0.000000 0.000000 0.000000 0.000000 0.000000 0.327994 -4.173547 -0.143867 1.128433 -22.645012 -1.664245 -1.338714 6.031094 2.937149 22.047219 24.216338 -10.990617 0.000000 0.000000 0.000000 0.000000 0.000000 0.000000 5.147439 -1.775826 46.373995 -1.543187 3.359129 -0.806056 1.697211 1.719157 0.531932 0.000000 0.000000 0.000000 0.605612 -2.669579 44.896664 3.343347 0.601813 0.581601 1.810365 -2.278721 -1.949276 0.000000 0.000000 0.000000
